<?xml version="1.0" standalone="no"?>
<!DOCTYPE svg PUBLIC "-//W3C//DTD SVG 20010904//EN"
 "http://www.w3.org/TR/2001/REC-SVG-20010904/DTD/svg10.dtd">
<svg version="1.0" xmlns="http://www.w3.org/2000/svg"
 width="16.000000pt" height="16.000000pt" viewBox="0 0 16.000000 16.000000"
 preserveAspectRatio="xMidYMid meet">
<metadata>
Created by potrace 1.11, written by Peter Selinger 2001-2013
</metadata>
<g transform="translate(0.000000,16.000000) scale(0.004211,-0.004211)"
fill="#000000" stroke="none">
<path d="M1650 3464 c-548 -47 -830 -149 -1050 -381 -200 -210 -297 -458 -414
-1063 -84 -431 -90 -482 -90 -785 -1 -258 1 -275 26 -382 29 -120 87 -257 132
-310 l28 -33 234 0 234 0 0 584 0 584 -87 78 c-58 51 -91 88 -97 108 -4 17 -6
87 -3 156 23 487 233 850 597 1035 405 205 1067 206 1479 3 381 -188 601 -582
601 -1078 l0 -138 -89 -79 -89 -78 -1 -587 -1 -588 234 0 234 0 27 36 c62 81
113 213 142 368 27 143 24 503 -6 706 -28 197 -122 671 -161 817 -174 650
-487 920 -1171 1008 -118 16 -600 28 -709 19z"/>
<path d="M2490 1060 c0 -723 0 -730 20 -730 20 0 20 7 20 730 0 723 0 730 -20
730 -20 0 -20 -7 -20 -730z"/>
<path d="M1680 1065 c0 -688 0 -695 20 -695 20 0 20 7 20 695 0 688 0 695 -20
695 -20 0 -20 -7 -20 -695z"/>
<path d="M1270 1065 l0 -575 25 0 25 0 0 575 0 575 -25 0 -25 0 0 -575z"/>
<path d="M1880 1065 l0 -575 25 0 25 0 0 575 0 575 -25 0 -25 0 0 -575z"/>
<path d="M2690 1065 c0 -568 0 -575 20 -575 20 0 20 7 20 575 0 568 0 575 -20
575 -20 0 -20 -7 -20 -575z"/>
<path d="M1070 1065 l0 -465 25 0 25 0 0 465 0 465 -25 0 -25 0 0 -465z"/>
<path d="M1480 1065 c0 -328 0 -335 20 -335 20 0 20 7 20 335 0 328 0 335 -20
335 -20 0 -20 -7 -20 -335z"/>
<path d="M2287 1393 c-4 -3 -7 -154 -7 -335 l0 -328 25 0 25 0 0 335 c0 318
-1 335 -18 335 -10 0 -22 -3 -25 -7z"/>
<path d="M2080 1065 l0 -195 25 0 25 0 0 195 0 195 -25 0 -25 0 0 -195z"/>
</g>
</svg>
